<?xml version="1.0" encoding="utf-8"?>
<!-- Generator: Adobe Illustrator 25.4.1, SVG Export Plug-In . SVG Version: 6.00 Build 0)  -->
<svg version="1.1" id="icon" xmlns="http://www.w3.org/2000/svg" xmlns:xlink="http://www.w3.org/1999/xlink" x="0px" y="0px"
	 viewBox="0 0 32 32" style="enable-background:new 0 0 32 32;" xml:space="preserve">
<style type="text/css">
	.st0{fill:none;}
	.st1{fill:#231F20;}
</style>
<rect id="_Transparent_Rectangle_" class="st0" width="32" height="32"/>
<g>
	<path class="st1" d="M27.4,2.4c0.7,0,1.3,0.2,1.8,0.7C29.7,3.6,30,4.2,30,5V27c0,0.7-0.3,1.3-0.8,1.8c-0.5,0.5-1.1,0.8-1.8,0.8H4.6
		c-0.7,0-1.3-0.3-1.8-0.8C2.2,28.4,2,27.8,2,27V5c0-0.7,0.2-1.3,0.7-1.8s1.1-0.7,1.8-0.7H27.4z M27.8,5c0-0.1,0-0.2-0.1-0.3
		c-0.1-0.1-0.2-0.1-0.3-0.1h-5.9v7.7h-2.2V4.6H4.6c-0.1,0-0.2,0-0.3,0.1C4.3,4.8,4.2,4.8,4.2,5v4.8h9.4l0.1,1c0,0,0,0.1,0,0.1
		s0,0.1,0,0.2c0.1,0.8,0,1.6-0.1,2.4c-0.1,0.9-0.4,1.7-0.7,2.6c-0.7,1.6-1.7,2.9-3.2,3.8c-1.4,1-3.3,1.5-5.5,1.6V27
		c0,0.1,0,0.2,0.1,0.2c0.1,0.1,0.2,0.1,0.3,0.1h12.2v-9.6h7.3v9.6h3.3c0.1,0,0.2,0,0.3-0.1s0.1-0.2,0.1-0.2V5z M4.2,19.3
		C6,19.2,7.5,18.8,8.5,18c1.1-0.7,1.9-1.7,2.4-2.9c0.2-0.5,0.4-1,0.5-1.6c0.1-0.5,0.2-1,0.2-1.5v-0.2H4.2V19.3z M18.9,27.4h3V20h-3
		V27.4z"/>
</g>
</svg>
